<?xml version="1.0" encoding="UTF-8" standalone="no" ?>
<!DOCTYPE svg PUBLIC "-//W3C//DTD SVG 1.1//EN" "http://www.w3.org/Graphics/SVG/1.1/DTD/svg11.dtd">
<svg xmlns="http://www.w3.org/2000/svg" xmlns:xlink="http://www.w3.org/1999/xlink" version="1.1" width="1080" height="1080" viewBox="0 0 1080 1080" xml:space="preserve">
<desc>Created with Fabric.js 5.2.4</desc>
<defs>
</defs>
<rect x="0" y="0" width="100%" height="100%" fill="transparent"></rect>
<g transform="matrix(1 0 0 1 540 540)" id="0b91bf7b-b400-4d29-9fd2-f8ae2443ede4"  >
<rect style="stroke: none; stroke-width: 1; stroke-dasharray: none; stroke-linecap: butt; stroke-dashoffset: 0; stroke-linejoin: miter; stroke-miterlimit: 4; fill: rgb(255,255,255); fill-rule: nonzero; opacity: 1; visibility: hidden;" vector-effect="non-scaling-stroke"  x="-540" y="-540" rx="0" ry="0" width="1080" height="1080" />
</g>
<g transform="matrix(1 0 0 1 540 540)" id="de5853a0-0e23-4334-9791-a0d0867da185"  >
</g>
<g transform="matrix(0.14 0 0 -0.14 463.08 233.37)"  >
<path style="stroke: none; stroke-width: 1; stroke-dasharray: none; stroke-linecap: butt; stroke-dashoffset: 0; stroke-linejoin: miter; stroke-miterlimit: 4; fill: rgb(0,0,0); fill-rule: nonzero; opacity: 1;" vector-effect="non-scaling-stroke"  transform=" translate(-3622.35, -6302.36)" d="M 3977 7119 C 3860 7105 3600 7035 3470 6983 C 3203 6877 3041 6776 2811 6571 C 2735 6503 2589 6336 2564 6288 C 2551 6262 2551 6260 2568 6260 C 2578 6260 2612 6265 2643 6271 C 2694 6282 2702 6287 2749 6345 C 2911 6545 3281 6819 3389 6820 C 3409 6820 3411 6818 3399 6804 C 3392 6795 3332 6752 3266 6708 C 3118 6609 3030 6539 2927 6436 C 2840 6348 2795 6288 2803 6267 C 2806 6259 2829 6247 2855 6241 C 2881 6234 2929 6216 2961 6200 C 2993 6183 3024 6170 3029 6170 C 3034 6170 3056 6199 3079 6234 C 3131 6317 3253 6463 3316 6519 C 3367 6564 3429 6600 3455 6600 C 3468 6600 3469 6611 3464 6668 C 3459 6730 3461 6739 3490 6788 C 3554 6898 3636 6926 3808 6895 C 3861 6885 3911 6875 3918 6873 C 3934 6866 3933 6848 3917 6826 C 3904 6808 3900 6808 3839 6824 C 3701 6858 3582 6836 3540 6768 C 3522 6738 3512 6660 3526 6660 C 3529 6660 3549 6674 3570 6690 C 3614 6725 3695 6763 3713 6757 C 3719 6755 3681 6721 3627 6681 C 3574 6641 3532 6604 3535 6600 C 3543 6588 3630 6560 3659 6560 C 3692 6560 3764 6593 3809 6627 L 3843 6653 L 3820 6613 C 3778 6538 3692 6511 3560 6531 L 3482 6543 L 3314 6372 C 3222 6277 3138 6186 3128 6169 L 3109 6137 L 3153 6091 C 3215 6028 3260 5953 3260 5914 C 3260 5865 3271 5820 3284 5820 C 3309 5820 3367 5759 3395 5705 C 3418 5659 3425 5631 3428 5564 C 3431 5518 3436 5480 3439 5480 C 3443 5480 3470 5526 3499 5583 C 3559 5698 3594 5744 3695 5843 C 3787 5934 3909 6025 4100 6145 C 4264 6247 4305 6278 4409 6375 C 4585 6540 4690 6761 4690 6970 C 4690 7077 4681 7091 4612 7098 L 4560 7103 L 4560 7064 C 4559 6988 4472 6817 4363 6680 C 4266 6557 4126 6463 3790 6295 C 3557 6178 3435 6089 3348 5969 C 3320 5931 3294 5903 3289 5906 C 3274 5915 3279 5973 3299 6015 C 3322 6064 3414 6171 3494 6240 C 3553 6292 3678 6360 3830 6423 C 4118 6543 4301 6673 4417 6842 C 4477 6929 4495 6963 4525 7046 L 4548 7108 L 4521 7114 C 4472 7125 4056 7129 3977 7119 z" stroke-linecap="round" />
</g>
<g transform="matrix(0.14 0 0 -0.14 683.74 229.52)"  >
<path style="stroke: none; stroke-width: 1; stroke-dasharray: none; stroke-linecap: butt; stroke-dashoffset: 0; stroke-linejoin: miter; stroke-miterlimit: 4; fill: rgb(0,0,0); fill-rule: nonzero; opacity: 1;" vector-effect="non-scaling-stroke"  transform=" translate(-5237.5, -6330.58)" d="M 4780 6942 L 4780 6834 L 4813 6822 C 4854 6807 4942 6730 4979 6677 C 4994 6654 5019 6605 5034 6568 C 5057 6510 5060 6487 5060 6393 C 5060 6334 5053 6238 5045 6180 C 5004 5882 5051 5750 5232 5655 C 5290 5624 5318 5616 5375 5612 C 5504 5604 5612 5654 5668 5748 C 5691 5788 5695 5806 5695 5870 C 5695 5956 5675 6000 5622 6036 C 5570 6071 5525 6075 5472 6048 C 5428 6026 5388 5979 5402 5965 C 5405 5962 5425 5966 5445 5974 C 5507 6000 5557 5995 5591 5959 C 5615 5933 5620 5919 5620 5878 C 5620 5666 5314 5631 5206 5831 C 5163 5909 5165 5991 5215 6180 C 5266 6372 5269 6477 5226 6593 C 5211 6635 5181 6697 5160 6729 C 5112 6803 5014 6900 4946 6940 C 4918 6957 4873 6988 4845 7010 C 4818 7032 4792 7050 4788 7050 C 4783 7050 4780 7001 4780 6942 z" stroke-linecap="round" />
</g>
<g transform="matrix(0.14 0 0 -0.14 577.24 396.92)"  >
<path style="stroke: none; stroke-width: 1; stroke-dasharray: none; stroke-linecap: butt; stroke-dashoffset: 0; stroke-linejoin: miter; stroke-miterlimit: 4; fill: rgb(0,0,0); fill-rule: nonzero; opacity: 1;" vector-effect="non-scaling-stroke"  transform=" translate(-4457.96, -5105.25)" d="M 5155 6903 C 5170 6887 5208 6842 5238 6802 C 5275 6753 5324 6706 5384 6661 C 5743 6391 5964 6092 6094 5700 C 6163 5491 6180 5395 6187 5173 C 6197 4826 6155 4629 6005 4330 C 5863 4046 5761 3936 5545 3830 C 5263 3693 4878 3678 4415 3786 C 4109 3858 3852 3960 3620 4100 C 3452 4202 3375 4261 3247 4388 C 3132 4502 3043 4627 2984 4758 C 2961 4809 2940 4854 2937 4856 C 2935 4858 2910 4848 2881 4834 C 2837 4811 2818 4807 2747 4808 C 2702 4808 2652 4813 2636 4819 L 2607 4831 L 2613 4795 C 2616 4776 2637 4718 2660 4666 C 2800 4346 3081 4063 3425 3892 C 3735 3739 4037 3651 4435 3599 C 4746 3559 5020 3553 5158 3583 C 5204 3593 5245 3599 5248 3595 C 5263 3580 5174 3520 5077 3480 C 4898 3405 4821 3381 4667 3350 C 4515 3320 4492 3311 4504 3291 C 4513 3277 4660 3277 4809 3291 C 5173 3325 5617 3603 5916 3986 C 6204 4352 6345 4825 6301 5275 C 6261 5686 6116 6040 5855 6365 C 5757 6487 5576 6659 5462 6740 C 5373 6803 5155 6930 5136 6930 C 5131 6930 5140 6918 5155 6903 z" stroke-linecap="round" />
</g>
<g transform="matrix(0.14 0 0 -0.14 550.32 319.64)"  >
<path style="stroke: none; stroke-width: 1; stroke-dasharray: none; stroke-linecap: butt; stroke-dashoffset: 0; stroke-linejoin: miter; stroke-miterlimit: 4; fill: rgb(0,0,0); fill-rule: nonzero; opacity: 1;" vector-effect="non-scaling-stroke"  transform=" translate(-4260.94, -5670.92)" d="M 4755 6753 C 4716 6644 4639 6502 4572 6419 C 4534 6371 4500 6328 4496 6322 C 4493 6316 4519 6296 4557 6275 C 4621 6240 4706 6178 4722 6156 C 4737 6133 4719 6140 4666 6175 C 4607 6214 4479 6280 4461 6280 C 4456 6280 4423 6258 4388 6232 C 4303 6167 4194 6094 4080 6024 C 3828 5870 3655 5704 3576 5537 C 3511 5400 3498 5347 3493 5199 C 3485 4994 3519 4873 3624 4726 C 3676 4653 3795 4537 3812 4542 C 3818 4544 3831 4568 3840 4596 C 3877 4703 3940 4786 4020 4836 L 4079 4872 L 4017 4912 C 3922 4973 3827 5054 3805 5091 L 3786 5125 L 3807 5110 C 3818 5102 3856 5074 3891 5049 C 4026 4950 4261 4823 4418 4764 C 4588 4700 4700 4761 4700 4918 C 4700 4985 4712 5020 4735 5020 C 4742 5020 4762 5032 4779 5046 C 4804 5067 4810 5080 4810 5111 C 4810 5139 4804 5153 4790 5162 C 4766 5177 4764 5190 4785 5190 C 4812 5190 4855 5217 4869 5243 C 4880 5264 4879 5271 4861 5301 C 4819 5369 4837 5410 4920 5441 C 4978 5462 5030 5501 5030 5524 C 5030 5530 5016 5562 4999 5595 C 4873 5842 4849 5997 4910 6175 C 4969 6346 4947 6585 4859 6712 C 4831 6754 4788 6800 4779 6800 C 4775 6800 4764 6779 4755 6753 z M 4257 6029 C 4281 6007 4336 5972 4378 5952 C 4447 5919 4464 5915 4545 5913 C 4595 5912 4643 5908 4650 5905 C 4658 5902 4685 5894 4710 5887 L 4755 5873 L 4683 5857 C 4523 5820 4430 5836 4322 5922 C 4278 5957 4200 6046 4200 6061 C 4200 6077 4212 6070 4257 6029 z" stroke-linecap="round" />
</g>
<g transform="matrix(0.14 0 0 -0.14 418.96 217.9)"  >
<path style="stroke: none; stroke-width: 1; stroke-dasharray: none; stroke-linecap: butt; stroke-dashoffset: 0; stroke-linejoin: miter; stroke-miterlimit: 4; fill: rgb(0,0,0); fill-rule: nonzero; opacity: 1;" vector-effect="non-scaling-stroke"  transform=" translate(-3299.43, -6415.64)" d="M 3384 6529 C 3357 6507 3316 6468 3292 6442 C 3243 6388 3156 6271 3161 6266 C 3167 6261 3443 6560 3438 6565 C 3436 6568 3412 6551 3384 6529 z" stroke-linecap="round" />
</g>
<g transform="matrix(0.14 0 0 -0.14 342 338.31)"  >
<path style="stroke: none; stroke-width: 1; stroke-dasharray: none; stroke-linecap: butt; stroke-dashoffset: 0; stroke-linejoin: miter; stroke-miterlimit: 4; fill: rgb(0,0,0); fill-rule: nonzero; opacity: 1;" vector-effect="non-scaling-stroke"  transform=" translate(-2736.07, -5534.24)" d="M 2621 6170 C 2485 6134 2418 6069 2385 5943 C 2359 5843 2371 5721 2402 5775 C 2419 5806 2496 5877 2532 5897 C 2564 5913 2722 5932 2846 5933 C 2909 5934 2958 5906 3048 5821 C 3143 5730 3155 5697 3155 5520 C 3155 5394 3152 5369 3134 5329 C 3105 5268 3060 5218 2972 5153 C 2906 5104 2889 5097 2829 5088 C 2694 5070 2545 5124 2441 5230 C 2360 5312 2327 5384 2322 5488 C 2318 5562 2321 5576 2344 5625 L 2371 5679 L 2342 5732 C 2325 5761 2309 5802 2306 5823 C 2302 5843 2297 5860 2294 5860 C 2291 5860 2273 5851 2252 5841 C 2168 5798 2125 5719 2109 5583 C 2097 5485 2105 5369 2125 5330 C 2158 5268 2226 5227 2358 5190 C 2437 5168 2440 5166 2418 5154 C 2406 5147 2378 5141 2358 5140 C 2314 5140 2306 5131 2320 5093 C 2354 5005 2403 4967 2555 4915 C 2734 4853 2895 4882 2967 4989 C 3001 5039 2997 5066 2953 5089 C 2905 5113 2916 5117 3046 5123 C 3196 5129 3278 5175 3338 5288 C 3375 5357 3376 5380 3355 5536 C 3337 5665 3313 5708 3235 5750 L 3185 5777 L 3174 5856 C 3161 5945 3134 6008 3094 6039 C 3034 6086 2810 6179 2742 6185 C 2714 6188 2665 6181 2621 6170 z" stroke-linecap="round" />
</g>
<g transform="matrix(0.14 0 0 -0.14 351.88 315.44)"  >
<path style="stroke: none; stroke-width: 1; stroke-dasharray: none; stroke-linecap: butt; stroke-dashoffset: 0; stroke-linejoin: miter; stroke-miterlimit: 4; fill: rgb(0,0,0); fill-rule: nonzero; opacity: 1;" vector-effect="non-scaling-stroke"  transform=" translate(-2808.43, -5701.68)" d="M 2765 5864 C 2656 5824 2608 5702 2663 5606 C 2697 5546 2732 5525 2795 5526 C 2862 5528 2905 5552 2945 5609 C 2987 5668 2987 5748 2947 5809 C 2903 5875 2844 5893 2765 5864 z M 2833 5741 C 2861 5730 2885 5680 2875 5651 C 2868 5629 2846 5623 2835 5640 C 2832 5646 2814 5650 2795 5650 C 2771 5650 2756 5657 2746 5672 C 2726 5701 2726 5706 2750 5730 C 2772 5752 2796 5755 2833 5741 z" stroke-linecap="round" />
</g>
<g transform="matrix(0.14 0 0 -0.14 343.73 341.2)"  >
<path style="stroke: none; stroke-width: 1; stroke-dasharray: none; stroke-linecap: butt; stroke-dashoffset: 0; stroke-linejoin: miter; stroke-miterlimit: 4; fill: rgb(0,0,0); fill-rule: nonzero; opacity: 1;" vector-effect="non-scaling-stroke"  transform=" translate(-2748.74, -5513.07)" d="M 2559 5845 C 2455 5791 2390 5655 2390 5493 C 2390 5332 2510 5204 2697 5165 C 2755 5153 2774 5153 2831 5165 C 2976 5195 3069 5274 3105 5400 C 3112 5422 3106 5419 3063 5378 C 3000 5320 2950 5294 2868 5279 C 2747 5257 2602 5309 2530 5400 C 2491 5449 2458 5524 2462 5553 C 2465 5572 2470 5568 2500 5525 C 2591 5395 2680 5340 2800 5340 C 2908 5340 3027 5406 3070 5490 C 3097 5542 3098 5668 3073 5711 C 3063 5727 3053 5740 3049 5740 C 3045 5740 3039 5719 3035 5693 C 3026 5630 3005 5581 2972 5547 C 2909 5480 2797 5453 2715 5484 C 2661 5505 2593 5578 2584 5626 C 2572 5692 2584 5775 2613 5819 C 2628 5841 2640 5862 2640 5865 C 2640 5877 2602 5867 2559 5845 z" stroke-linecap="round" />
</g>
<g transform="matrix(0.14 0 0 -0.14 581 480.72)"  >
<path style="stroke: none; stroke-width: 1; stroke-dasharray: none; stroke-linecap: butt; stroke-dashoffset: 0; stroke-linejoin: miter; stroke-miterlimit: 4; fill: rgb(0,0,0); fill-rule: nonzero; opacity: 1;" vector-effect="non-scaling-stroke"  transform=" translate(-4485.5, -4491.85)" d="M 3316 5126 C 3267 5080 3204 5051 3142 5043 L 3092 5037 L 3065 4974 L 3038 4911 L 3075 4843 C 3310 4419 3673 4137 4212 3959 C 4710 3794 5208 3779 5504 3919 C 5659 3992 5793 4116 5860 4249 C 5916 4362 5933 4429 5933 4540 C 5932 4686 5887 4801 5791 4898 C 5688 5004 5575 5051 5428 5051 C 5238 5051 5090 4959 5007 4790 C 4977 4728 4975 4719 4975 4610 C 4975 4504 4977 4491 5003 4442 C 5039 4374 5095 4318 5162 4284 C 5207 4260 5228 4256 5300 4256 C 5396 4256 5430 4268 5493 4329 C 5549 4382 5570 4428 5570 4500 C 5570 4600 5517 4675 5430 4701 C 5381 4716 5320 4701 5284 4665 C 5249 4630 5255 4615 5293 4642 C 5335 4672 5408 4673 5448 4643 C 5483 4617 5520 4553 5520 4517 C 5520 4448 5454 4358 5390 4340 C 5325 4322 5269 4328 5214 4359 C 5075 4439 5027 4589 5093 4734 C 5121 4795 5187 4871 5241 4906 C 5388 4999 5587 4968 5711 4832 C 5788 4748 5813 4686 5818 4569 C 5825 4417 5783 4304 5682 4198 C 5617 4129 5560 4091 5460 4050 C 5356 4006 5260 3990 5110 3990 C 4787 3990 4441 4084 4055 4278 C 3769 4420 3539 4633 3447 4837 C 3422 4893 3390 5021 3375 5123 C 3372 5143 3366 5160 3362 5160 C 3357 5160 3337 5145 3316 5126 z" stroke-linecap="round" />
</g>
<g transform="matrix(0.14 0 0 -0.14 231.47 422.99)"  >
<path style="stroke: none; stroke-width: 1; stroke-dasharray: none; stroke-linecap: butt; stroke-dashoffset: 0; stroke-linejoin: miter; stroke-miterlimit: 4; fill: rgb(0,0,0); fill-rule: nonzero; opacity: 1;" vector-effect="non-scaling-stroke"  transform=" translate(-1927.06, -4914.45)" d="M 1732 5071 C 1692 5061 1654 5048 1649 5043 C 1628 5022 1773 4843 1854 4789 C 1927 4740 1939 4737 2049 4741 C 2164 4746 2180 4759 2128 4804 C 2108 4822 2053 4859 2007 4887 C 1961 4916 1917 4946 1909 4956 C 1896 4971 1897 4972 1920 4965 C 1985 4945 2074 4898 2136 4850 C 2214 4790 2221 4794 2190 4884 C 2163 4965 2113 5022 2038 5059 C 1983 5087 1968 5090 1891 5089 C 1844 5089 1772 5080 1732 5071 z" stroke-linecap="round" />
</g>
<g transform="matrix(0.14 0 0 -0.14 408.3 538.53)"  >
<path style="stroke: none; stroke-width: 1; stroke-dasharray: none; stroke-linecap: butt; stroke-dashoffset: 0; stroke-linejoin: miter; stroke-miterlimit: 4; fill: rgb(0,0,0); fill-rule: nonzero; opacity: 1;" vector-effect="non-scaling-stroke"  transform=" translate(-3221.38, -4068.74)" d="M 2423 4703 C 2426 4610 2431 4525 2435 4513 C 2449 4468 2424 4491 2393 4553 C 2356 4623 2237 4786 2233 4773 C 2229 4761 2276 4673 2337 4576 C 2363 4535 2397 4482 2412 4458 C 2463 4375 2633 4134 2677 4082 C 2736 4012 2812 3956 2945 3882 C 3071 3812 3099 3800 3303 3730 C 3384 3702 3473 3666 3500 3649 C 3558 3614 3713 3452 3740 3399 C 3767 3347 3807 3302 3844 3283 C 3888 3260 3982 3263 4048 3289 C 4110 3314 4210 3375 4210 3389 C 4210 3403 4111 3479 4056 3507 C 4012 3530 3997 3532 3921 3528 C 3838 3524 3755 3498 3755 3476 C 3755 3472 3791 3456 3835 3441 C 3920 3412 3981 3379 3960 3372 C 3953 3369 3901 3381 3843 3396 L 3738 3425 L 3702 3480 C 3683 3510 3648 3557 3624 3585 C 3600 3612 3580 3638 3580 3642 C 3580 3657 3629 3650 3725 3620 C 3836 3586 3840 3585 3840 3603 C 3840 3611 3813 3620 3767 3627 C 3726 3634 3642 3660 3579 3685 C 3516 3711 3427 3745 3380 3760 C 3242 3806 3110 3859 3040 3896 C 2926 3956 2790 4061 2722 4140 C 2555 4336 2490 4503 2490 4739 C 2490 4838 2488 4850 2471 4860 C 2460 4865 2444 4870 2435 4870 C 2419 4870 2418 4855 2423 4703 z" stroke-linecap="round" />
</g>
<g transform="matrix(0.14 0 0 -0.14 328.91 577.94)"  >
<path style="stroke: none; stroke-width: 1; stroke-dasharray: none; stroke-linecap: butt; stroke-dashoffset: 0; stroke-linejoin: miter; stroke-miterlimit: 4; fill: rgb(0,0,0); fill-rule: nonzero; opacity: 1;" vector-effect="non-scaling-stroke"  transform=" translate(-2640.25, -3780.24)" d="M 2578 3873 C 2539 3828 2544 3759 2592 3705 C 2647 3641 2717 3672 2727 3764 C 2734 3819 2717 3850 2667 3874 C 2622 3895 2597 3894 2578 3873 z" stroke-linecap="round" />
</g>
<g transform="matrix(0.14 0 0 -0.14 398.51 610.69)"  >
<path style="stroke: none; stroke-width: 1; stroke-dasharray: none; stroke-linecap: butt; stroke-dashoffset: 0; stroke-linejoin: miter; stroke-miterlimit: 4; fill: rgb(0,0,0); fill-rule: nonzero; opacity: 1;" vector-effect="non-scaling-stroke"  transform=" translate(-3149.69, -3540.52)" d="M 2972 3769 C 2974 3761 3007 3734 3045 3707 C 3128 3650 3154 3627 3191 3576 C 3242 3507 3222 3507 3147 3574 C 3064 3649 2920 3751 2908 3744 C 2895 3736 2899 3637 2915 3583 C 2934 3520 2999 3444 3068 3407 C 3096 3392 3167 3367 3227 3351 C 3286 3335 3348 3317 3363 3311 C 3379 3305 3394 3300 3397 3300 C 3400 3300 3400 3328 3396 3363 C 3377 3538 3293 3697 3193 3746 C 3130 3777 2964 3794 2972 3769 z" stroke-linecap="round" />
</g>
<g transform="matrix(0.14 0 0 -0.14 661.67 764.83)"  >
<path style="stroke: none; stroke-width: 1; stroke-dasharray: none; stroke-linecap: butt; stroke-dashoffset: 0; stroke-linejoin: miter; stroke-miterlimit: 4; fill: rgb(0,0,0); fill-rule: nonzero; opacity: 1;" vector-effect="non-scaling-stroke"  transform=" translate(-5075.99, -2412.26)" d="M 5028 2739 C 4907 2711 4803 2582 4793 2447 C 4787 2376 4808 2286 4842 2235 C 4888 2168 4954 2110 5004 2093 C 5071 2070 5205 2071 5283 2094 C 5346 2112 5360 2131 5360 2197 L 5360 2233 L 5331 2193 C 5293 2140 5223 2115 5143 2124 C 5074 2132 5043 2148 4996 2201 C 4944 2258 4921 2314 4914 2402 C 4905 2508 4927 2580 4988 2641 C 5100 2752 5278 2725 5318 2591 C 5330 2551 5343 2540 5354 2559 C 5357 2564 5357 2602 5354 2643 L 5347 2718 L 5277 2734 C 5202 2751 5088 2753 5028 2739 z" stroke-linecap="round" />
</g>
<g transform="matrix(0.14 0 0 -0.14 203.5 763.36)"  >
<path style="stroke: none; stroke-width: 1; stroke-dasharray: none; stroke-linecap: butt; stroke-dashoffset: 0; stroke-linejoin: miter; stroke-miterlimit: 4; fill: rgb(0,0,0); fill-rule: nonzero; opacity: 1;" vector-effect="non-scaling-stroke"  transform=" translate(-1722.3, -2423)" d="M 1438 2715 L 1470 2689 L 1470 2452 C 1470 2182 1465 2140 1438 2132 C 1428 2130 1421 2122 1423 2116 C 1426 2108 1484 2105 1611 2105 L 1795 2105 L 1858 2139 C 2050 2243 2096 2454 1966 2631 C 1942 2663 1913 2687 1873 2706 C 1816 2735 1812 2735 1610 2738 L 1405 2741 L 1438 2715 z M 1751 2690 C 1838 2666 1919 2554 1928 2445 C 1936 2334 1879 2214 1794 2164 C 1754 2140 1735 2136 1677 2137 C 1621 2137 1604 2141 1593 2155 C 1583 2169 1580 2224 1580 2384 C 1580 2500 1583 2619 1586 2648 L 1593 2700 L 1654 2700 C 1688 2700 1731 2695 1751 2690 z" stroke-linecap="round" />
</g>
<g transform="matrix(0.14 0 0 -0.14 269.92 770.78)"  >
<path style="stroke: none; stroke-width: 1; stroke-dasharray: none; stroke-linecap: butt; stroke-dashoffset: 0; stroke-linejoin: miter; stroke-miterlimit: 4; fill: rgb(0,0,0); fill-rule: nonzero; opacity: 1;" vector-effect="non-scaling-stroke"  transform=" translate(-2208.5, -2368.71)" d="M 2142 2613 C 2164 2589 2165 2583 2165 2369 C 2165 2149 2165 2149 2141 2131 L 2117 2113 L 2150 2107 C 2197 2097 2300 2099 2300 2109 C 2300 2114 2293 2123 2285 2130 C 2273 2140 2270 2179 2270 2362 C 2270 2500 2274 2589 2281 2602 C 2287 2613 2290 2623 2288 2625 C 2286 2626 2248 2630 2202 2632 L 2120 2637 L 2142 2613 z" stroke-linecap="round" />
</g>
<g transform="matrix(0.14 0 0 -0.14 331.41 770.08)"  >
<path style="stroke: none; stroke-width: 1; stroke-dasharray: none; stroke-linecap: butt; stroke-dashoffset: 0; stroke-linejoin: miter; stroke-miterlimit: 4; fill: rgb(0,0,0); fill-rule: nonzero; opacity: 1;" vector-effect="non-scaling-stroke"  transform=" translate(-2658.56, -2373.82)" d="M 2460 2632 C 2388 2629 2386 2628 2406 2612 C 2420 2601 2453 2528 2494 2418 C 2595 2151 2615 2110 2646 2110 C 2675 2110 2692 2144 2792 2399 C 2835 2507 2863 2564 2887 2591 L 2922 2630 L 2862 2630 C 2829 2630 2795 2633 2786 2636 C 2765 2644 2765 2621 2787 2605 C 2802 2594 2802 2588 2791 2549 C 2765 2461 2678 2250 2671 2255 C 2660 2261 2540 2565 2540 2586 C 2540 2595 2547 2608 2556 2615 C 2572 2626 2571 2627 2554 2631 C 2544 2633 2501 2634 2460 2632 z" stroke-linecap="round" />
</g>
<g transform="matrix(0.14 0 0 -0.14 394.97 770.36)"  >
<path style="stroke: none; stroke-width: 1; stroke-dasharray: none; stroke-linecap: butt; stroke-dashoffset: 0; stroke-linejoin: miter; stroke-miterlimit: 4; fill: rgb(0,0,0); fill-rule: nonzero; opacity: 1;" vector-effect="non-scaling-stroke"  transform=" translate(-3123.79, -2371.77)" d="M 3043 2615 L 3070 2589 L 3070 2382 C 3070 2268 3067 2165 3064 2154 C 3061 2142 3049 2128 3037 2122 C 3018 2114 3020 2112 3061 2105 C 3086 2101 3137 2102 3176 2107 C 3239 2116 3243 2118 3219 2128 C 3184 2142 3180 2167 3180 2384 C 3180 2526 3183 2571 3195 2594 C 3204 2610 3209 2624 3208 2625 C 3206 2626 3162 2630 3110 2634 L 3015 2641 L 3043 2615 z" stroke-linecap="round" />
</g>
<g transform="matrix(0.14 0 0 -0.14 467.34 770.94)"  >
<path style="stroke: none; stroke-width: 1; stroke-dasharray: none; stroke-linecap: butt; stroke-dashoffset: 0; stroke-linejoin: miter; stroke-miterlimit: 4; fill: rgb(0,0,0); fill-rule: nonzero; opacity: 1;" vector-effect="non-scaling-stroke"  transform=" translate(-3653.5, -2367.5)" d="M 3408 2633 C 3387 2628 3384 2614 3402 2608 C 3415 2603 3418 2568 3436 2278 L 3443 2162 L 3415 2136 L 3387 2110 L 3474 2110 C 3530 2110 3559 2114 3555 2120 C 3552 2126 3543 2130 3536 2130 C 3503 2130 3492 2165 3480 2311 C 3473 2392 3469 2463 3472 2470 C 3474 2476 3563 2394 3670 2288 L 3865 2095 L 3871 2225 C 3875 2297 3878 2405 3879 2466 C 3880 2561 3883 2581 3900 2603 C 3911 2617 3920 2631 3920 2634 C 3920 2637 3889 2640 3850 2640 C 3812 2640 3780 2637 3780 2634 C 3780 2631 3790 2620 3803 2610 C 3824 2593 3825 2584 3828 2431 C 3831 2297 3829 2271 3817 2275 C 3810 2278 3766 2323 3721 2376 C 3610 2502 3449 2647 3428 2639 C 3426 2638 3417 2636 3408 2633 z" stroke-linecap="round" />
</g>
<g transform="matrix(0.14 0 0 -0.14 548.88 770.79)"  >
<path style="stroke: none; stroke-width: 1; stroke-dasharray: none; stroke-linecap: butt; stroke-dashoffset: 0; stroke-linejoin: miter; stroke-miterlimit: 4; fill: rgb(0,0,0); fill-rule: nonzero; opacity: 1;" vector-effect="non-scaling-stroke"  transform=" translate(-4250.37, -2368.6)" d="M 4070 2628 C 4070 2624 4079 2618 4090 2615 C 4120 2605 4123 2575 4116 2356 C 4109 2161 4108 2154 4086 2134 L 4062 2113 L 4126 2106 C 4161 2102 4244 2102 4309 2106 L 4428 2113 L 4435 2167 C 4439 2197 4440 2224 4437 2226 C 4435 2229 4423 2215 4412 2196 C 4387 2153 4331 2135 4267 2147 L 4225 2156 L 4222 2253 L 4219 2350 L 4280 2350 C 4335 2350 4341 2348 4352 2325 C 4358 2311 4367 2300 4371 2300 C 4380 2300 4388 2430 4379 2436 C 4375 2438 4365 2431 4355 2420 C 4341 2404 4324 2400 4278 2400 L 4220 2400 L 4220 2490 L 4220 2580 L 4298 2580 C 4372 2580 4377 2578 4390 2555 C 4414 2511 4431 2524 4428 2582 L 4425 2633 L 4247 2634 C 4150 2635 4070 2632 4070 2628 z" stroke-linecap="round" />
</g>
<g transform="matrix(0.14 0 0 -0.14 750.89 770.52)"  >
<path style="stroke: none; stroke-width: 1; stroke-dasharray: none; stroke-linecap: butt; stroke-dashoffset: 0; stroke-linejoin: miter; stroke-miterlimit: 4; fill: rgb(0,0,0); fill-rule: nonzero; opacity: 1;" vector-effect="non-scaling-stroke"  transform=" translate(-5729, -2370.62)" d="M 5708 2623 C 5686 2598 5642 2507 5580 2360 C 5515 2206 5493 2161 5467 2133 L 5447 2110 L 5523 2110 C 5565 2110 5600 2113 5600 2116 C 5600 2119 5591 2129 5581 2138 C 5562 2155 5562 2156 5581 2218 L 5601 2280 L 5700 2280 L 5798 2280 L 5820 2215 C 5842 2150 5840 2130 5814 2130 C 5806 2130 5800 2126 5800 2121 C 5800 2108 5900 2098 5959 2106 L 6011 2113 L 5987 2139 C 5954 2174 5941 2200 5840 2435 C 5790 2551 5747 2636 5738 2638 C 5730 2639 5717 2633 5708 2623 z M 5725 2458 C 5734 2434 5751 2394 5761 2368 L 5780 2320 L 5700 2320 L 5621 2320 L 5658 2410 C 5678 2459 5698 2500 5701 2500 C 5705 2500 5716 2481 5725 2458 z" stroke-linecap="round" />
</g>
<g transform="matrix(0.14 0 0 -0.14 838.75 771.3)"  >
<path style="stroke: none; stroke-width: 1; stroke-dasharray: none; stroke-linecap: butt; stroke-dashoffset: 0; stroke-linejoin: miter; stroke-miterlimit: 4; fill: rgb(0,0,0); fill-rule: nonzero; opacity: 1;" vector-effect="non-scaling-stroke"  transform=" translate(-6372.16, -2364.88)" d="M 6130 2621 C 6130 2616 6139 2608 6151 2605 C 6171 2598 6172 2594 6168 2367 C 6166 2194 6162 2136 6153 2132 C 6146 2130 6140 2121 6140 2113 C 6140 2099 6152 2098 6221 2103 C 6265 2106 6304 2111 6307 2114 C 6310 2117 6303 2127 6292 2137 C 6277 2150 6271 2169 6269 2205 C 6265 2289 6269 2307 6289 2313 C 6317 2320 6341 2300 6410 2210 C 6444 2167 6482 2124 6495 2116 C 6520 2099 6605 2094 6614 2108 C 6617 2113 6599 2137 6574 2161 C 6548 2185 6506 2236 6479 2274 L 6430 2343 L 6469 2386 C 6514 2434 6528 2482 6511 2533 C 6497 2576 6463 2608 6419 2620 C 6376 2633 6130 2633 6130 2621 z M 6381 2551 C 6440 2492 6407 2379 6328 2367 C 6272 2359 6270 2363 6270 2476 L 6270 2580 L 6311 2580 C 6342 2580 6358 2574 6381 2551 z" stroke-linecap="round" />
</g>
<g transform="matrix(0.14 0 0 -0.14 913.11 771.25)"  >
<path style="stroke: none; stroke-width: 1; stroke-dasharray: none; stroke-linecap: butt; stroke-dashoffset: 0; stroke-linejoin: miter; stroke-miterlimit: 4; fill: rgb(0,0,0); fill-rule: nonzero; opacity: 1;" vector-effect="non-scaling-stroke"  transform=" translate(-6916.46, -2365.29)" d="M 6749 2613 C 6768 2596 6770 2582 6776 2378 L 6783 2162 L 6757 2137 L 6730 2113 L 6783 2106 C 6855 2098 7062 2099 7076 2108 C 7082 2112 7092 2136 7098 2163 C 7105 2200 7105 2210 7095 2210 C 7088 2210 7080 2203 7077 2196 C 7063 2159 6931 2130 6891 2154 C 6884 2159 6880 2194 6880 2250 C 6880 2321 6883 2339 6896 2344 C 6921 2353 6990 2351 6990 2341 C 6990 2336 6998 2324 7008 2314 C 7024 2297 7025 2299 7030 2351 C 7033 2381 7033 2413 7031 2423 C 7028 2440 7026 2440 7005 2420 C 6987 2403 6972 2399 6929 2402 L 6875 2405 L 6872 2493 L 6869 2580 L 6945 2580 C 7016 2580 7021 2578 7032 2555 C 7051 2514 7068 2525 7072 2580 L 7075 2630 L 6901 2630 C 6735 2630 6729 2629 6749 2613 z" stroke-linecap="round" />
</g>
</svg>